<mxfile host="app.diagrams.net" modified="2021-06-27T05:13:12.794Z" agent="5.0 (Macintosh; Intel Mac OS X 10_14_3) AppleWebKit/537.36 (KHTML, like Gecko) Chrome/91.0.4472.114 Safari/537.36" etag="xS9suMDAtoKOulD1hCW1" version="14.7.7" type="github">
  <diagram id="3228e29e-7158-1315-38df-8450db1d8a1d" name="Page-1">
    <mxGraphModel dx="-534" dy="638" grid="0" gridSize="10" guides="1" tooltips="1" connect="1" arrows="1" fold="1" page="1" pageScale="1" pageWidth="850" pageHeight="300" background="#EFF1F3" math="0" shadow="1">
      <root>
        <mxCell id="0" />
        <mxCell id="1" parent="0" />
        <mxCell id="VN525CW4IU2bW7JPmV1f-49" value="" style="endArrow=none;html=1;strokeWidth=6;dashed=1;strokeColor=#EA6B66;startArrow=classic;startFill=1;endFill=0;" parent="1" edge="1">
          <mxGeometry width="50" height="50" relative="1" as="geometry">
            <mxPoint x="1047" y="13" as="sourcePoint" />
            <mxPoint x="1047" y="618" as="targetPoint" />
          </mxGeometry>
        </mxCell>
        <mxCell id="VN525CW4IU2bW7JPmV1f-1" value="" style="rounded=1;whiteSpace=wrap;html=1;dashed=1;strokeWidth=5;fillColor=none;" parent="1" vertex="1">
          <mxGeometry x="1007" y="-106" width="534" height="170" as="geometry" />
        </mxCell>
        <mxCell id="VN525CW4IU2bW7JPmV1f-2" value="" style="rounded=1;whiteSpace=wrap;html=1;dashed=1;strokeWidth=5;fillColor=none;" parent="1" vertex="1">
          <mxGeometry x="1005" y="77" width="529" height="602" as="geometry" />
        </mxCell>
        <mxCell id="VN525CW4IU2bW7JPmV1f-3" value="&lt;font style=&quot;font-size: 18px&quot;&gt;socket接口&lt;/font&gt;" style="rounded=1;whiteSpace=wrap;html=1;strokeColor=none;labelBackgroundColor=none;fillColor=#FDD276;" parent="1" vertex="1">
          <mxGeometry x="1032.5" y="57" width="483" height="26" as="geometry" />
        </mxCell>
        <mxCell id="VN525CW4IU2bW7JPmV1f-4" value="&lt;span style=&quot;color: rgb(51 , 51 , 51) ; font-family: &amp;#34;open sans&amp;#34; , &amp;#34;clear sans&amp;#34; , &amp;#34;helvetica neue&amp;#34; , &amp;#34;helvetica&amp;#34; , &amp;#34;arial&amp;#34; , sans-serif&quot;&gt;&lt;font style=&quot;font-size: 18px&quot;&gt;connect&lt;/font&gt;&lt;/span&gt;" style="rounded=1;whiteSpace=wrap;html=1;strokeColor=none;fillColor=#9AC7BF;labelBackgroundColor=none;" parent="1" vertex="1">
          <mxGeometry x="1073" y="77" width="86" height="36" as="geometry" />
        </mxCell>
        <mxCell id="VN525CW4IU2bW7JPmV1f-5" value="&lt;span style=&quot;color: rgb(51 , 51 , 51) ; font-family: &amp;#34;open sans&amp;#34; , &amp;#34;clear sans&amp;#34; , &amp;#34;helvetica neue&amp;#34; , &amp;#34;helvetica&amp;#34; , &amp;#34;arial&amp;#34; , sans-serif&quot;&gt;&lt;font style=&quot;font-size: 18px&quot;&gt;socket&lt;/font&gt;&lt;/span&gt;" style="rounded=1;whiteSpace=wrap;html=1;strokeColor=none;fillColor=#9AC7BF;labelBackgroundColor=none;" parent="1" vertex="1">
          <mxGeometry x="1073" y="33" width="86" height="36" as="geometry" />
        </mxCell>
        <mxCell id="VN525CW4IU2bW7JPmV1f-6" value="&lt;font style=&quot;font-size: 14px&quot;&gt;&lt;span style=&quot;color: rgb(51 , 51 , 51) ; font-family: &amp;#34;open sans&amp;#34; , &amp;#34;clear sans&amp;#34; , &amp;#34;helvetica neue&amp;#34; , &amp;#34;helvetica&amp;#34; , &amp;#34;arial&amp;#34; , sans-serif&quot;&gt;socket&lt;/span&gt;&lt;span style=&quot;color: rgb(51 , 51 , 51) ; font-family: &amp;#34;open sans&amp;#34; , &amp;#34;clear sans&amp;#34; , &amp;#34;helvetica neue&amp;#34; , &amp;#34;helvetica&amp;#34; , &amp;#34;arial&amp;#34; , sans-serif&quot;&gt;&lt;font&gt;(AF_INET, &lt;br&gt;SOCK_STREAM, 0)&lt;/font&gt;&lt;/span&gt;&lt;/font&gt;" style="text;html=1;strokeColor=none;fillColor=none;align=center;verticalAlign=middle;whiteSpace=wrap;rounded=0;" parent="1" vertex="1">
          <mxGeometry x="885" y="29" width="128" height="61" as="geometry" />
        </mxCell>
        <mxCell id="VN525CW4IU2bW7JPmV1f-7" value="&lt;font style=&quot;font-size: 18px&quot;&gt;connect()&lt;/font&gt;" style="rounded=1;whiteSpace=wrap;html=1;strokeColor=none;fillColor=#4A919B;" parent="1" vertex="1">
          <mxGeometry x="1074.5" y="-39.620000000000005" width="83" height="37.25" as="geometry" />
        </mxCell>
        <mxCell id="VN525CW4IU2bW7JPmV1f-8" value="&lt;font style=&quot;font-size: 24px&quot;&gt;用户态&lt;/font&gt;" style="text;html=1;strokeColor=none;fillColor=none;align=center;verticalAlign=middle;whiteSpace=wrap;rounded=0;dashed=1;" parent="1" vertex="1">
          <mxGeometry x="1198" y="-80" width="132.5" height="20" as="geometry" />
        </mxCell>
        <mxCell id="VN525CW4IU2bW7JPmV1f-9" value="&lt;font style=&quot;font-size: 24px&quot;&gt;内核态&lt;/font&gt;" style="text;html=1;strokeColor=none;align=center;verticalAlign=middle;whiteSpace=wrap;rounded=0;dashed=1;labelBackgroundColor=none;" parent="1" vertex="1">
          <mxGeometry x="1219" y="103" width="102" height="20" as="geometry" />
        </mxCell>
        <mxCell id="VN525CW4IU2bW7JPmV1f-10" value="&lt;span style=&quot;color: rgb(51 , 51 , 51) ; font-family: &amp;#34;open sans&amp;#34; , &amp;#34;clear sans&amp;#34; , &amp;#34;helvetica neue&amp;#34; , &amp;#34;helvetica&amp;#34; , &amp;#34;arial&amp;#34; , sans-serif&quot;&gt;&lt;font style=&quot;font-size: 14px&quot;&gt;inet_stream_connect&lt;/font&gt;&lt;/span&gt;" style="rounded=1;whiteSpace=wrap;html=1;strokeColor=none;fontSize=18;fillColor=#9AC7BF;labelBackgroundColor=none;" parent="1" vertex="1">
          <mxGeometry x="1198" y="135" width="135" height="52" as="geometry" />
        </mxCell>
        <mxCell id="VN525CW4IU2bW7JPmV1f-11" value="&lt;span style=&quot;color: rgb(51, 51, 51); font-family: &amp;quot;open sans&amp;quot;, &amp;quot;clear sans&amp;quot;, &amp;quot;helvetica neue&amp;quot;, helvetica, arial, sans-serif; font-size: 18px;&quot;&gt;&lt;font style=&quot;font-size: 18px&quot;&gt;传输层&lt;/font&gt;&lt;/span&gt;" style="rounded=1;whiteSpace=wrap;html=1;strokeColor=none;fontSize=18;fillColor=#9AC7BF;labelBackgroundColor=none;" parent="1" vertex="1">
          <mxGeometry x="1198" y="207" width="135" height="52" as="geometry" />
        </mxCell>
        <mxCell id="VN525CW4IU2bW7JPmV1f-12" value="&lt;span style=&quot;color: rgb(51, 51, 51); font-family: &amp;quot;open sans&amp;quot;, &amp;quot;clear sans&amp;quot;, &amp;quot;helvetica neue&amp;quot;, helvetica, arial, sans-serif; font-size: 18px;&quot;&gt;网络层&lt;/span&gt;" style="rounded=1;whiteSpace=wrap;html=1;strokeColor=none;fontSize=18;fillColor=#9AC7BF;labelBackgroundColor=none;" parent="1" vertex="1">
          <mxGeometry x="1198" y="279" width="135" height="52" as="geometry" />
        </mxCell>
        <mxCell id="VN525CW4IU2bW7JPmV1f-13" value="&lt;span style=&quot;color: rgb(51, 51, 51); font-family: &amp;quot;open sans&amp;quot;, &amp;quot;clear sans&amp;quot;, &amp;quot;helvetica neue&amp;quot;, helvetica, arial, sans-serif; font-size: 18px;&quot;&gt;数据链路层&lt;/span&gt;" style="rounded=1;whiteSpace=wrap;html=1;strokeColor=none;fontSize=18;fillColor=#9AC7BF;labelBackgroundColor=none;" parent="1" vertex="1">
          <mxGeometry x="1201" y="352" width="135" height="52" as="geometry" />
        </mxCell>
        <mxCell id="VN525CW4IU2bW7JPmV1f-19" value="" style="shape=flexArrow;endArrow=classic;html=1;strokeColor=none;fillColor=#9AC7BF;labelBackgroundColor=none;" parent="1" edge="1">
          <mxGeometry width="50" height="50" relative="1" as="geometry">
            <mxPoint x="1005" y="56.99999999999993" as="sourcePoint" />
            <mxPoint x="1055" y="56.99999999999993" as="targetPoint" />
          </mxGeometry>
        </mxCell>
        <mxCell id="VN525CW4IU2bW7JPmV1f-20" value="" style="endArrow=none;dashed=1;html=1;labelBackgroundColor=none;fontSize=18;fontColor=#9AC7BF;fillColor=#9AC7BF;startArrow=classic;startFill=1;strokeWidth=6;strokeColor=#808080;" parent="1" edge="1">
          <mxGeometry width="50" height="50" relative="1" as="geometry">
            <mxPoint x="1159" y="549" as="sourcePoint" />
            <mxPoint x="1158.5" y="5" as="targetPoint" />
          </mxGeometry>
        </mxCell>
        <mxCell id="VN525CW4IU2bW7JPmV1f-24" value="&lt;span style=&quot;font-size: 17px&quot;&gt;TCP头(SYN)&lt;/span&gt;" style="rounded=1;whiteSpace=wrap;html=1;strokeColor=none;fillColor=#4A919B;" parent="1" vertex="1">
          <mxGeometry x="1089.5" y="286" width="87.5" height="38" as="geometry" />
        </mxCell>
        <mxCell id="VN525CW4IU2bW7JPmV1f-25" value="&lt;font style=&quot;font-size: 18px&quot;&gt;IP头&lt;/font&gt;" style="rounded=1;whiteSpace=wrap;html=1;strokeColor=none;fillColor=#F19C99;" parent="1" vertex="1">
          <mxGeometry x="1010" y="286" width="79.5" height="38" as="geometry" />
        </mxCell>
        <mxCell id="VN525CW4IU2bW7JPmV1f-26" value="&lt;span style=&quot;font-size: 17px&quot;&gt;TCP头(SYN)&lt;/span&gt;" style="rounded=1;whiteSpace=wrap;html=1;strokeColor=none;fillColor=#4A919B;" parent="1" vertex="1">
          <mxGeometry x="1096" y="361" width="87.5" height="38" as="geometry" />
        </mxCell>
        <mxCell id="VN525CW4IU2bW7JPmV1f-27" value="&lt;font style=&quot;font-size: 18px&quot;&gt;IP头&lt;/font&gt;" style="rounded=1;whiteSpace=wrap;html=1;strokeColor=none;fillColor=#F19C99;" parent="1" vertex="1">
          <mxGeometry x="1016.5" y="361" width="79.5" height="38" as="geometry" />
        </mxCell>
        <mxCell id="VN525CW4IU2bW7JPmV1f-28" value="&lt;font style=&quot;font-size: 18px&quot;&gt;MAC头&lt;/font&gt;" style="rounded=1;whiteSpace=wrap;html=1;strokeColor=none;fillColor=#999999;" parent="1" vertex="1">
          <mxGeometry x="937" y="361" width="79.5" height="38" as="geometry" />
        </mxCell>
        <mxCell id="VN525CW4IU2bW7JPmV1f-30" value="&lt;font style=&quot;font-size: 17px&quot;&gt;TCP头(SYN)&lt;/font&gt;" style="rounded=1;whiteSpace=wrap;html=1;strokeColor=none;fillColor=#4A919B;" parent="1" vertex="1">
          <mxGeometry x="1089.5" y="217" width="87.5" height="38" as="geometry" />
        </mxCell>
        <mxCell id="VN525CW4IU2bW7JPmV1f-32" value="数据1" style="shape=mxgraph.arrows2.arrow;verticalLabelPosition=bottom;shadow=0;dashed=0;align=center;html=1;verticalAlign=top;strokeWidth=1;dy=0;dx=10;notch=0;sketch=0;strokeColor=none;fillColor=#535E80;" parent="1" vertex="1">
          <mxGeometry x="1209" y="444" width="60" height="32" as="geometry" />
        </mxCell>
        <mxCell id="VN525CW4IU2bW7JPmV1f-33" value="&lt;span style=&quot;font-family: , &amp;#34;simsun&amp;#34; ; font-size: 12px ; background-color: inherit ; color: rgb(18 , 18 , 18) ; letter-spacing: 0.544px ; text-align: justify&quot;&gt;&amp;nbsp;&lt;/span&gt;&lt;span style=&quot;font-family: , &amp;#34;simsun&amp;#34; ; background-color: inherit ; color: rgb(18 , 18 , 18) ; letter-spacing: 0.544px ; text-align: justify&quot;&gt;&lt;font style=&quot;font-size: 18px&quot;&gt;input_pkt_queue&lt;/font&gt;&lt;/span&gt;" style="text;html=1;strokeColor=none;fillColor=none;align=center;verticalAlign=middle;whiteSpace=wrap;rounded=0;dashed=1;dashPattern=1 1;fontSize=18;" parent="1" vertex="1">
          <mxGeometry x="1231" y="500" width="152" height="29.09" as="geometry" />
        </mxCell>
        <mxCell id="VN525CW4IU2bW7JPmV1f-34" value="数据2" style="shape=mxgraph.arrows2.arrow;verticalLabelPosition=bottom;shadow=0;dashed=0;align=center;html=1;verticalAlign=top;strokeWidth=1;dy=0;dx=10;notch=0;sketch=0;strokeColor=none;fillColor=#535E80;" parent="1" vertex="1">
          <mxGeometry x="1277" y="444" width="60" height="32" as="geometry" />
        </mxCell>
        <mxCell id="VN525CW4IU2bW7JPmV1f-35" value="数据3" style="shape=mxgraph.arrows2.arrow;verticalLabelPosition=bottom;shadow=0;dashed=0;align=center;html=1;verticalAlign=top;strokeWidth=1;dy=0;dx=10;notch=0;sketch=0;strokeColor=none;fillColor=#535E80;" parent="1" vertex="1">
          <mxGeometry x="1347" y="444" width="60" height="32" as="geometry" />
        </mxCell>
        <mxCell id="VN525CW4IU2bW7JPmV1f-36" value="&lt;span style=&quot;color: rgb(51 , 51 , 51) ; font-family: &amp;#34;open sans&amp;#34; , &amp;#34;clear sans&amp;#34; , &amp;#34;helvetica neue&amp;#34; , &amp;#34;helvetica&amp;#34; , &amp;#34;arial&amp;#34; , sans-serif ; font-size: 18px&quot;&gt;软中断&lt;/span&gt;" style="rounded=1;whiteSpace=wrap;html=1;strokeColor=none;fontSize=18;fillColor=#9AC7BF;labelBackgroundColor=none;" parent="1" vertex="1">
          <mxGeometry x="1393" y="526" width="85" height="48" as="geometry" />
        </mxCell>
        <mxCell id="VN525CW4IU2bW7JPmV1f-37" value="&lt;font style=&quot;font-size: 18px&quot;&gt;1.数据加入链表&lt;/font&gt;" style="text;html=1;strokeColor=none;fillColor=none;align=center;verticalAlign=middle;whiteSpace=wrap;rounded=0;sketch=0;" parent="1" vertex="1">
          <mxGeometry x="1059" y="454" width="126" height="34" as="geometry" />
        </mxCell>
        <mxCell id="VN525CW4IU2bW7JPmV1f-38" value="&lt;font style=&quot;font-size: 18px&quot;&gt;2.触发软中断&lt;/font&gt;" style="text;html=1;strokeColor=none;fillColor=none;align=center;verticalAlign=middle;whiteSpace=wrap;rounded=0;sketch=0;" parent="1" vertex="1">
          <mxGeometry x="1207" y="555" width="126" height="34" as="geometry" />
        </mxCell>
        <mxCell id="VN525CW4IU2bW7JPmV1f-39" value="" style="endArrow=classic;html=1;strokeWidth=6;dashed=1;strokeColor=#808080;" parent="1" edge="1">
          <mxGeometry width="50" height="50" relative="1" as="geometry">
            <mxPoint x="1212.5" y="553" as="sourcePoint" />
            <mxPoint x="1369.5" y="553" as="targetPoint" />
          </mxGeometry>
        </mxCell>
        <mxCell id="VN525CW4IU2bW7JPmV1f-40" value="" style="endArrow=classic;dashed=1;html=1;labelBackgroundColor=none;fontSize=18;fontColor=#9AC7BF;fillColor=#9AC7BF;startArrow=none;startFill=0;strokeWidth=6;strokeColor=#808080;endFill=1;exitX=0.731;exitY=0.755;exitDx=0;exitDy=0;exitPerimeter=0;" parent="1" edge="1">
          <mxGeometry width="50" height="50" relative="1" as="geometry">
            <mxPoint x="1422.9979999999998" y="515.7849999999999" as="sourcePoint" />
            <mxPoint x="1423" y="254.21" as="targetPoint" />
          </mxGeometry>
        </mxCell>
        <mxCell id="VN525CW4IU2bW7JPmV1f-41" value="&lt;font style=&quot;font-size: 18px&quot;&gt;3.软中断从&lt;br&gt;链表里取出&lt;br&gt;数据到协议栈&lt;/font&gt;" style="text;html=1;strokeColor=none;fillColor=none;align=center;verticalAlign=middle;whiteSpace=wrap;rounded=0;sketch=0;" parent="1" vertex="1">
          <mxGeometry x="1294" y="374" width="154" height="30" as="geometry" />
        </mxCell>
        <mxCell id="VN525CW4IU2bW7JPmV1f-44" value="" style="shape=image;html=1;verticalAlign=top;verticalLabelPosition=bottom;labelBackgroundColor=#ffffff;imageAspect=0;aspect=fixed;image=https://cdn3.iconfinder.com/data/icons/miscellaneous-80/60/error-128.png" parent="1" vertex="1">
          <mxGeometry x="1363" y="202.5" width="53" height="53" as="geometry" />
        </mxCell>
        <mxCell id="VN525CW4IU2bW7JPmV1f-47" value="&lt;font style=&quot;font-size: 24px&quot; color=&quot;#ea6b66&quot;&gt;&lt;b&gt;RST&lt;/b&gt;&lt;/font&gt;" style="text;html=1;strokeColor=none;fillColor=none;align=center;verticalAlign=middle;whiteSpace=wrap;rounded=0;" parent="1" vertex="1">
          <mxGeometry x="1454" y="219" width="40" height="20" as="geometry" />
        </mxCell>
        <mxCell id="VN525CW4IU2bW7JPmV1f-48" value="" style="endArrow=classic;html=1;strokeWidth=6;dashed=1;strokeColor=#EA6B66;" parent="1" edge="1">
          <mxGeometry width="50" height="50" relative="1" as="geometry">
            <mxPoint x="1502" y="265" as="sourcePoint" />
            <mxPoint x="1502" y="592" as="targetPoint" />
          </mxGeometry>
        </mxCell>
        <mxCell id="VN525CW4IU2bW7JPmV1f-50" value="" style="endArrow=classic;html=1;strokeWidth=6;dashed=1;strokeColor=#EA6B66;" parent="1" edge="1">
          <mxGeometry width="50" height="50" relative="1" as="geometry">
            <mxPoint x="1489.5" y="610" as="sourcePoint" />
            <mxPoint x="1070.5" y="612" as="targetPoint" />
          </mxGeometry>
        </mxCell>
        <mxCell id="VN525CW4IU2bW7JPmV1f-51" value="" style="pointerEvents=1;shadow=0;dashed=0;html=1;strokeColor=none;labelPosition=center;verticalLabelPosition=bottom;verticalAlign=top;align=center;outlineConnect=0;shape=mxgraph.veeam2.network_card;fillColor=#535E80;" parent="1" vertex="1">
          <mxGeometry x="1341" y="723" width="169" height="95" as="geometry" />
        </mxCell>
        <mxCell id="VN525CW4IU2bW7JPmV1f-52" value="网卡" style="text;html=1;strokeColor=none;fillColor=none;align=center;verticalAlign=middle;whiteSpace=wrap;rounded=0;dashed=1;dashPattern=1 1;fontSize=18;" parent="1" vertex="1">
          <mxGeometry x="1391" y="707" width="106" height="24" as="geometry" />
        </mxCell>
        <mxCell id="VN525CW4IU2bW7JPmV1f-53" value="" style="html=1;outlineConnect=0;gradientColor=none;gradientDirection=north;strokeWidth=2;shape=mxgraph.networks.cloud;fontColor=#ffffff;dashed=1;dashPattern=1 1;labelBackgroundColor=none;fontSize=18;strokeColor=none;fillColor=#535E80;" parent="1" vertex="1">
          <mxGeometry x="1545.5" y="742" width="117" height="65" as="geometry" />
        </mxCell>
        <mxCell id="VN525CW4IU2bW7JPmV1f-54" value="网络" style="text;html=1;strokeColor=none;fillColor=none;align=center;verticalAlign=middle;whiteSpace=wrap;rounded=0;dashed=1;dashPattern=1 1;fontSize=18;" parent="1" vertex="1">
          <mxGeometry x="1553.5" y="712" width="106" height="24" as="geometry" />
        </mxCell>
        <mxCell id="VN525CW4IU2bW7JPmV1f-55" value="&lt;font style=&quot;font-size: 72px&quot; color=&quot;#ea6b66&quot;&gt;×&lt;/font&gt;" style="text;html=1;strokeColor=none;fillColor=none;align=center;verticalAlign=middle;whiteSpace=wrap;rounded=0;sketch=0;fontSize=100;" parent="1" vertex="1">
          <mxGeometry x="1260" y="707" width="108" height="89" as="geometry" />
        </mxCell>
        <mxCell id="V42iheE7eQf1DwFW_BvU-1" value="&lt;font style=&quot;font-size: 18px&quot;&gt;4.端口不存在，报RST&lt;/font&gt;" style="text;html=1;strokeColor=none;fillColor=none;align=center;verticalAlign=middle;whiteSpace=wrap;rounded=0;sketch=0;" vertex="1" parent="1">
          <mxGeometry x="1373.5" y="157" width="126" height="34" as="geometry" />
        </mxCell>
        <mxCell id="V42iheE7eQf1DwFW_BvU-2" value="" style="fontColor=#0066CC;verticalAlign=top;verticalLabelPosition=bottom;labelPosition=center;align=center;html=1;outlineConnect=0;gradientColor=none;gradientDirection=north;strokeWidth=2;shape=mxgraph.networks.pc;fillColor=#4A919B;" vertex="1" parent="1">
          <mxGeometry x="1191.15" y="-266" width="165.71" height="116" as="geometry" />
        </mxCell>
      </root>
    </mxGraphModel>
  </diagram>
</mxfile>
